<svg width="283" height="283" viewBox="0 0 283 283" fill="none" xmlns="http://www.w3.org/2000/svg">
<path fill-rule="evenodd" clip-rule="evenodd" d="M240.948 116.474C238.96 117.075 242.938 117.075 240.948 116.474V116.474Z" fill="#212121"/>
<path fill-rule="evenodd" clip-rule="evenodd" d="M221.303 160.502C221.513 160.284 220.971 160.847 221.303 160.502V160.502Z" fill="#212121"/>
<path fill-rule="evenodd" clip-rule="evenodd" d="M216.769 210.749C216.436 211.092 216.979 210.529 216.769 210.749V210.749Z" fill="#212121"/>
<path fill-rule="evenodd" clip-rule="evenodd" d="M215.761 188.99C215.431 189.333 215.974 188.773 215.761 188.99V188.99Z" fill="#212121"/>
<path fill-rule="evenodd" clip-rule="evenodd" d="M191.076 198.315C191.289 198.097 190.746 198.659 191.076 198.315V198.315Z" fill="#212121"/>
<path fill-rule="evenodd" clip-rule="evenodd" d="M129.114 197.281C131.134 197.578 126.132 196.841 129.114 197.281V197.281Z" fill="#212121"/>
<path fill-rule="evenodd" clip-rule="evenodd" d="M118.534 199.354C118.649 199.756 118.548 200.375 119.035 200.39C118.924 199.987 119.024 199.368 118.534 199.354Z" fill="#212121"/>
<path fill-rule="evenodd" clip-rule="evenodd" d="M81.7588 197.281C79.7689 197.881 83.7505 197.881 81.7588 197.281V197.281Z" fill="#212121"/>
<path fill-rule="evenodd" clip-rule="evenodd" d="M77.2259 194.174C75.2344 194.772 79.2159 194.772 77.2259 194.174V194.174Z" fill="#212121"/>
<path fill-rule="evenodd" clip-rule="evenodd" d="M77.7284 197.282C77.616 196.878 77.7144 196.259 77.2261 196.245C77.3368 196.648 77.2384 197.266 77.7284 197.282Z" fill="#212121"/>
<path fill-rule="evenodd" clip-rule="evenodd" d="M73.6992 193.655C73.6992 194.692 73.6992 195.728 73.6992 196.763C74.0347 196.763 74.3701 196.763 74.7055 196.763C75.1008 196.648 75.2922 196.33 75.2097 195.728C73.2654 195.947 75.4784 194.175 73.6992 193.655Z" fill="#212121"/>
<path fill-rule="evenodd" clip-rule="evenodd" d="M72.1887 195.208C69.2626 194.664 71.9779 197.455 72.1887 195.208V195.208Z" fill="#212121"/>
<path fill-rule="evenodd" clip-rule="evenodd" d="M67.15 197.8C67.5154 199.213 66.1471 198.841 66.1418 199.871C67.8227 200.834 68.2635 198.008 67.15 197.8Z" fill="#212121"/>
<path fill-rule="evenodd" clip-rule="evenodd" d="M62.6167 199.87C63.1208 199.87 63.2156 200.292 63.623 200.39C63.6021 199.676 63.8584 199.253 64.1271 198.833C63.6232 198.833 63.1172 198.833 62.6167 198.833C62.6167 199.181 62.6167 199.528 62.6167 199.87Z" fill="#212121"/>
<path fill-rule="evenodd" clip-rule="evenodd" d="M62.6167 196.245C62.7291 196.648 62.629 197.266 63.1172 197.282C63.0049 196.878 63.1067 196.259 62.6167 196.245Z" fill="#212121"/>
<path fill-rule="evenodd" clip-rule="evenodd" d="M60.0966 203.496C60.0722 205.298 60.1194 201.894 60.1211 201.698C60.1194 201.761 60.1142 202.248 60.0966 203.496Z" fill="#212121"/>
<path fill-rule="evenodd" clip-rule="evenodd" d="M51.5345 196.245C50.5017 195.95 47.7531 196.402 49.5165 197.282C49.8343 195.393 52.063 198.677 51.5345 196.245Z" fill="#212121"/>
<path fill-rule="evenodd" clip-rule="evenodd" d="M48.0076 198.832C48.5995 198.753 49.4373 198.925 49.5162 198.316C48.7997 198.194 48.6679 197.465 48.0076 197.281C48.0076 197.8 48.0076 198.316 48.0076 198.832Z" fill="#212121"/>
<path fill-rule="evenodd" clip-rule="evenodd" d="M43.977 196.763C43.9472 197.08 43.9015 197.376 43.4712 197.282C43.4712 197.627 43.4712 197.971 43.4712 198.316C44.7111 199.122 44.9553 196.557 43.977 196.763Z" fill="#212121"/>
<path fill-rule="evenodd" clip-rule="evenodd" d="M38.4359 199.872C37.4436 200.026 37.4348 199.174 36.9236 198.833C35.487 199.634 37.909 201.318 38.4359 199.872Z" fill="#212121"/>
<path fill-rule="evenodd" clip-rule="evenodd" d="M37.4275 197.8C37.3151 197.398 37.4133 196.779 36.9233 196.764C37.0357 197.166 36.9375 197.787 37.4275 197.8Z" fill="#212121"/>
<path fill-rule="evenodd" clip-rule="evenodd" d="M29.3665 200.908C29.4806 201.31 29.3823 201.929 29.8706 201.944C29.7581 201.542 29.8582 200.923 29.3665 200.908Z" fill="#212121"/>
<path fill-rule="evenodd" clip-rule="evenodd" d="M20.8041 200.389C21.0151 200.168 20.4736 200.727 20.8041 200.389V200.389Z" fill="#212121"/>
<path fill-rule="evenodd" clip-rule="evenodd" d="M17.2776 189.513C17.3549 190.122 17.1916 190.982 17.7799 191.067C17.7026 190.456 17.8659 189.598 17.2776 189.513Z" fill="#212121"/>
<path fill-rule="evenodd" clip-rule="evenodd" d="M123.571 198.318C123.58 198.407 123.587 198.465 123.591 198.5C123.571 198.314 123.475 197.372 123.414 196.759C123.447 197.091 123.498 197.588 123.571 198.318Z" fill="#212121"/>
<path fill-rule="evenodd" clip-rule="evenodd" d="M191.185 119.331C191.364 119.598 192.573 120.76 192.505 121.291C194.255 122.85 194.366 124.166 195.449 126.443C196.96 126.5 197.018 128.118 198.219 128.505C198.909 128.252 199.389 127.776 199.285 126.672C194.773 121.356 190.964 115.287 187.561 108.777C186.311 108.258 184.932 106.76 183.724 106.942C185.407 111.976 188.686 116.269 191.185 119.331Z" fill="#212121"/>
<path fill-rule="evenodd" clip-rule="evenodd" d="M174.131 103.043C177.102 106.925 179.95 112.182 183.086 117.036C186.891 122.934 191.648 129.175 195.235 134.702C196.184 133.947 197.125 135.214 197.792 134.702C197.964 133.294 196.853 133.267 196.942 131.948C194.54 130.85 193.645 128.608 192.253 126.444C189.726 122.521 186.871 119.051 184.363 115.431C182.847 112.473 181.006 109.54 179.035 106.713C177.101 103.941 175.661 100.448 173.279 98.6853C171.347 100.577 173.182 101.804 174.131 103.043Z" fill="#212121"/>
<path fill-rule="evenodd" clip-rule="evenodd" d="M189.481 132.866C187.452 131.515 186.541 129.613 184.792 127.131C183.448 125.225 182.641 123.243 181.807 121.855C180.974 120.468 179.011 118.846 177.968 120.936C180.607 125.745 184.008 129.727 186.923 134.243C187.7 134.384 188.64 134.361 189.481 134.012C189.481 133.63 189.481 133.247 189.481 132.866Z" fill="#212121"/>
<path fill-rule="evenodd" clip-rule="evenodd" d="M151.746 97.9977C152.548 99.7363 154.174 100.587 154.307 103.044C162.36 111.963 168.331 123.129 175.625 132.867C177.122 132.479 177.3 133.51 178.394 133.553C178.39 133.014 178.76 132.879 178.608 132.177C169.806 120.933 161.665 108.97 154.094 96.3911C153.17 97.2092 151.963 96.3551 151.746 97.9977Z" fill="#212121"/>
<path fill-rule="evenodd" clip-rule="evenodd" d="M167.099 105.568C169.485 108.781 171.505 112.377 174.131 115.431C175.047 115.191 176.323 115.34 177.116 114.972C177.129 114.679 177.388 114.654 177.331 114.284C172.447 109.751 168.889 103.793 165.393 97.7688C164.454 98.4799 163.263 98.3677 162.195 98.4548C163.119 101.375 165.404 103.291 167.099 105.568Z" fill="#212121"/>
<path fill-rule="evenodd" clip-rule="evenodd" d="M144.29 188.378C145.875 189.072 147.376 188.305 149.191 188.149C155.961 187.573 165.627 188.453 171.574 187.464C171.574 187.309 171.574 187.157 171.574 187.005C171.556 186.501 171.108 185.821 170.933 184.94C164.037 184.915 154.622 185.787 147.7 186.543C146.243 186.702 144.465 186.283 144.29 188.378Z" fill="#212121"/>
<path fill-rule="evenodd" clip-rule="evenodd" d="M168.803 131.948C166.447 130.024 165.086 126.723 163.259 124.148C160.748 120.606 157.223 117.912 156.012 113.598C154.708 113.669 154.737 114.03 153.668 114.055C153.668 114.513 153.668 114.972 153.668 115.431C155.152 116.053 155.477 117.918 156.863 118.643C156.793 119.563 157.558 119.582 157.503 120.477C161.898 124.008 163.306 130.752 168.163 133.784C168.38 134.47 168.575 135.175 169.442 135.159C170.058 134.982 169.972 134.05 170.295 133.553C169.885 132.634 169.31 132.362 168.803 131.948Z" fill="#212121"/>
<path fill-rule="evenodd" clip-rule="evenodd" d="M157.503 130.571C153.404 124.279 148.535 118.815 144.714 112.22C143.491 112.324 143.095 111.891 142.155 112.22C142.904 114.881 145.072 116.684 146.633 118.643C150.108 123.007 153.171 127.835 156.439 132.177C157.172 133.154 157.992 134.519 159.21 134.931C160.272 133.266 158.603 131.355 157.503 130.571Z" fill="#212121"/>
<path fill-rule="evenodd" clip-rule="evenodd" d="M142.582 97.3094C144.324 101.401 146.869 104.624 149.617 107.631C150.358 107.816 150.437 107.291 151.11 107.402C149.534 103.365 146.451 100.942 144.714 97.0793C143.99 97.1413 142.986 96.9011 142.582 97.3094Z" fill="#212121"/>
<path fill-rule="evenodd" clip-rule="evenodd" d="M122.757 99.145C126.087 103.439 130.054 107.043 132.562 112.22C134.566 113.963 135.885 116.446 137.041 119.102C141.243 123.447 144.326 129.002 148.338 133.553C149.083 133.285 149.503 132.668 150.471 132.636C150.531 130.047 148.327 129.896 147.912 127.82C140.535 120.434 134.313 111.526 128.302 102.815C126.981 100.902 125.706 97.6551 123.612 97.0793C123.084 97.6913 123.523 98.4923 122.757 99.145Z" fill="#212121"/>
<path fill-rule="evenodd" clip-rule="evenodd" d="M143.223 159.017C146.677 159.992 146.386 153.329 145.142 151.447C144.248 152.05 143.316 152.365 142.37 152.365C142.389 154.551 141.647 157.478 143.223 159.017Z" fill="#212121"/>
<path fill-rule="evenodd" clip-rule="evenodd" d="M137.68 103.043C137.81 101.588 136.651 101.619 135.975 100.292C135.353 99.0686 134.392 97.2826 132.778 97.3091C132.735 101.046 135.522 103.253 138.32 104.648C138.753 103.814 138.29 103.35 137.68 103.043Z" fill="#212121"/>
<path fill-rule="evenodd" clip-rule="evenodd" d="M137.253 132.867C137.443 132.457 137.847 132.283 137.68 131.491C129.274 121.648 123.317 109.171 115.296 98.914C113.691 99.3222 113.042 96.9826 111.46 98.2259C117.228 109.76 125.807 118.266 131.925 129.425C134.686 130.353 134.84 134.086 137.68 134.931C137.889 133.865 137.404 133.545 137.253 132.867Z" fill="#212121"/>
<path fill-rule="evenodd" clip-rule="evenodd" d="M124.462 128.737C124.933 129.072 125.379 129.434 126.169 129.425C123.926 124.651 120.874 120.744 117.855 116.807C117.072 117.665 116.016 117.108 115.296 117.726C117.382 121.674 120.665 124.335 122.332 128.737C123.09 128.762 123.106 129.586 124.037 129.425C124.39 129.423 124.157 128.788 124.462 128.737Z" fill="#212121"/>
<path fill-rule="evenodd" clip-rule="evenodd" d="M108.047 170.029C107.826 167.209 108.35 164.861 107.41 162.688C106.21 163.018 106.477 162.468 105.276 162.457C104.231 164.225 104.9 168.454 104.638 169.8C102.926 170.316 103.657 167.746 103.572 166.818C103.17 162.344 102.824 154.827 103.36 150.072C106.365 149.149 110.534 149.141 113.38 150.531C113.502 151.351 113.132 151.638 112.951 152.135C112.48 152.663 111.499 151.387 110.821 152.135C109.925 154.152 109.619 159.29 111.46 160.396C112.456 160.628 112.168 159.472 113.167 159.705C113.794 160.927 113.204 162.591 112.524 163.147C111.667 163.381 111.578 162.79 111.248 162.457C109.547 164.237 110.266 167.851 110.608 170.485C109.461 170.649 108.861 170.225 108.047 170.029ZM111.672 171.635C112.788 171.687 113.801 171.631 114.656 171.407C115.67 165.347 113.887 155.239 115.51 149.381C115.766 149.334 115.64 149.129 115.51 148.925C113.764 146.941 111.558 147.936 108.264 147.777C105.441 147.639 103.634 146.207 101.867 147.549C101.417 148.638 101.816 149.747 101.867 150.988C102.123 157.372 100.985 166.627 102.508 172.551C105.369 171.996 110.361 174.529 111.672 171.635Z" fill="#212121"/>
<path fill-rule="evenodd" clip-rule="evenodd" d="M112.524 109.008C112.804 107.791 111.908 107.836 112.099 106.713C108.943 103.686 106.806 99.5613 104.426 95.7022C103.03 96.0558 103.332 94.5852 101.867 95.0143C103.727 100.049 107.464 103.06 109.115 108.32C110.491 108.292 111.253 108.923 112.524 109.008Z" fill="#212121"/>
<path fill-rule="evenodd" clip-rule="evenodd" d="M105.919 190.216C106.563 190.864 109.777 191.046 110.394 190.216C109.196 190.018 106.365 188.38 105.919 190.216Z" fill="#212121"/>
<path fill-rule="evenodd" clip-rule="evenodd" d="M108.901 183.104C108.913 182.811 109.175 182.786 109.115 182.416C108.843 182.403 108.82 182.123 108.474 182.185C102.972 181.447 95.476 181.762 89.5044 181.728C88.0924 181.721 86.3993 181.187 85.4526 182.185C85.8741 183.625 87.706 183.151 88.6508 183.104C92.924 182.899 96.9899 182.038 101.017 182.416C103.759 182.675 106.525 183.791 108.901 183.104Z" fill="#212121"/>
<path fill-rule="evenodd" clip-rule="evenodd" d="M108.048 158.559C108.701 154.979 109.259 151.039 105.064 152.135C104.416 153.905 104.138 157.227 104.638 159.475C105.87 160.117 107.607 159.512 108.048 158.559Z" fill="#212121"/>
<path fill-rule="evenodd" clip-rule="evenodd" d="M103.785 138.37C103.631 137.669 104.154 137.695 103.998 136.996C96.2241 135.569 90.3194 136.813 82.6812 137.453C84.2091 139.341 86.9965 137.83 89.5045 137.684C94.4924 137.393 100.211 137.166 103.785 138.37Z" fill="#212121"/>
<path fill-rule="evenodd" clip-rule="evenodd" d="M100.587 126.902C97.6625 126.558 95.3054 127.079 93.1259 127.361C91.4802 127.573 89.5148 127.002 88.4365 128.05C88.4365 128.201 88.4365 128.354 88.4365 128.507C92.1827 129.316 96.9265 126.968 101.017 128.738C101.423 127.93 100.812 127.626 100.587 126.902Z" fill="#212121"/>
<path fill-rule="evenodd" clip-rule="evenodd" d="M97.8154 119.561C95.7377 118.123 93.955 118.676 91.8492 118.415C91.8545 118.954 91.4803 119.088 91.6349 119.791C93.9287 119.652 96.4754 119.493 97.8154 119.561Z" fill="#212121"/>
<path fill-rule="evenodd" clip-rule="evenodd" d="M84.8133 168.653C84.5306 168.653 84.246 168.653 83.9615 168.653C82.7461 165.906 83.0623 161.654 82.8936 157.639C82.7847 155.012 82.4651 152.476 82.8936 150.072C85.7863 150.395 88.4436 149.108 90.142 149.61C90.6127 149.751 91.8824 150.032 91.6348 151.216C91.6681 152.251 90.3649 151.838 89.7169 152.135C90.0418 154.571 89.2603 156.259 89.7169 157.87C90.2578 159.785 92.9591 159.756 91.8491 161.77C90.9639 161.832 91.0167 161.468 90.3562 161.77C89.9733 163.731 90.386 166.543 89.9295 168.424C89.4517 168.87 88.3277 168.622 87.7973 168.424C86.8998 166.588 87.4215 163.813 87.158 161.77C86.5906 161.77 86.0216 161.77 85.4525 161.77C84.037 163.208 84.9573 166.733 84.8133 168.653ZM94.1937 148.925C91.1132 147.122 86.3834 147.673 82.0436 146.859C81.5271 147.529 81.3673 148.582 80.7632 149.153C81.636 155.225 81.3779 161.973 81.4042 169.341C81.882 170.356 83.1272 170.546 83.749 171.406C87.562 171.151 91.1887 170.697 95.0457 170.485C94.1288 164.008 93.9777 156.362 94.1937 148.925Z" fill="#212121"/>
<path fill-rule="evenodd" clip-rule="evenodd" d="M86.9451 152.594C85.691 153.247 86.0423 151.834 84.6004 152.135C84.128 154.428 84.293 157.951 85.2396 159.475C86.1179 158.993 87.0469 159.167 87.7969 159.017C87.7705 156.306 87.8776 153.801 86.9451 152.594Z" fill="#212121"/>
<path fill-rule="evenodd" clip-rule="evenodd" d="M44.9501 185.168C44.2968 184.877 44.3232 183.858 43.6716 183.561C43.9209 183.385 45.2311 184.016 44.9501 185.168ZM54.1163 171.406C53.3418 171.552 53.8529 170.313 53.2646 170.258C53.4278 169.878 54.2744 170.682 54.1163 171.406ZM20.0104 198.246C19.833 197.642 19.8137 196.312 19.7944 195.722C19.6381 189.982 22.8117 183.506 28.323 183.104C28.748 183.337 28.8113 183.957 29.1766 184.252C30.9733 183.746 30.0794 181.137 28.9624 180.58C29.7387 176.063 32.705 173.903 37.2767 173.469C37.6561 173.978 38.1163 174.403 37.9143 175.533C40.0693 175.636 39.5793 172.891 40.475 171.635C41.5955 171.005 42.4404 170.081 43.459 169.341C46.3112 169.023 47.4441 170.556 49.2145 171.406C49.3287 172.355 49.527 173.21 49.6412 174.159C48.0588 173.258 46.4939 172.344 45.1644 171.177C44.2195 171.384 43.5398 171.875 43.0322 172.552C45.052 174.431 47.7162 175.614 48.7876 178.515C48.5049 179.207 47.7602 179.4 47.0823 179.665C45.5876 178.39 44.5953 174.566 42.3929 175.533C43.3887 177.904 44.7411 179.889 46.018 181.956C45.5842 182.105 45.8756 183.03 45.3751 183.104C43.2623 181.834 41.4427 177.893 38.3428 179.207C40.8105 182.203 44.1633 184.033 44.9501 189.069C41.8993 188.282 39.8568 183.245 36.2106 183.104C35.5134 183.496 35.9226 184.397 35.9981 185.168H37.7036C39.9762 187.693 42.3297 190.133 44.0983 193.199C44.2704 193.156 44.3108 192.968 44.525 192.968C44.8693 192.286 44.1843 190.779 44.525 189.986C44.9589 189.241 45.0642 190.761 45.5911 190.675C47.4564 189.768 46.111 187.475 46.8697 185.398C47.5231 183.603 51.7963 181.059 54.3305 180.35C52.6164 175.938 56.7034 172.609 60.727 173.011C61.902 172.365 61.6527 170.184 62.4325 169.11C63.7866 169.642 64.858 167.643 66.6933 168.653C67.8489 170.427 68.0931 171.764 67.972 174.847C67.0902 174.342 67.3309 172.628 66.4808 172.092C65.8011 171.896 65.8223 172.454 65.4165 172.552C65.6554 174.433 66.7548 175.392 66.6933 177.599C66.0083 177.398 66.4017 178.355 65.8416 178.287C64.4962 177.67 64.7209 175.363 63.4968 174.618C63.3247 174.661 63.2825 174.847 63.0701 174.847C62.2622 176.473 64.4926 178.409 64.5629 180.58C62.552 180.657 62.782 176.396 60.727 175.764C60.202 175.891 59.9456 176.302 59.6611 176.682C60.3232 178.796 61.5982 180.251 62.2164 182.416C61.2452 182.288 61.3155 183.281 60.3003 183.104C59.5891 182.189 59.3484 180.765 58.3806 180.121C58.2086 180.165 58.1682 180.353 57.9539 180.35C56.814 181.987 60.7552 184.259 57.9539 186.086C57.585 184.879 57.0634 183.832 56.2484 183.104C55.6672 182.936 55.8182 183.561 55.3966 183.561C56.0115 185.58 56.9914 187.197 57.9539 188.839C57.5096 189.944 57.6957 191.7 58.8057 191.821C59.9525 191.447 59.9719 189.867 60.3003 188.61C61.7844 187.075 63.207 185.47 65.4165 184.71C66.3421 184.757 66.8444 185.515 67.7594 184.94C67.8156 184.111 67.366 183.836 67.3344 183.104C67.6418 182.976 67.8525 182.747 67.972 182.416C70.1971 182.7 71.6286 183.836 71.597 186.544C70.7609 186.376 70.8645 185.194 69.8917 185.168C68.8572 186.706 72.2539 188.385 70.3184 190.448C69.2962 189.939 69.3664 188.259 68.613 187.464C67.8929 187.376 67.7049 187.861 67.3344 188.15C67.9754 189.771 70.2498 191.657 68.8256 193.425C67.2553 192.44 67.0533 189.982 65.629 188.839C65.0933 188.801 64.9598 189.192 64.7755 189.528C65.4692 191.073 66.4422 192.322 66.9093 194.116C64.2398 194.231 64.642 191.048 63.0701 189.986C61.5789 190.82 63.2668 192.755 63.9219 193.887C57.1776 195.336 49.9046 195.46 42.8197 196.869C42.2102 196.019 42.7318 195.336 42.3929 194.345C39.8357 191.974 38.3025 188.5 34.9303 187.005C34.6476 187.235 34.14 187.222 34.0786 187.693C36.4952 190.826 39.8409 192.963 41.5394 196.869C37.4471 197.711 35.257 190.958 31.7355 189.986C31.444 190.058 31.5582 190.56 31.5213 190.904C33.325 193.014 35.3607 194.877 36.6375 197.557C32.9614 199.824 32.1325 195.737 29.8176 194.573C29.0765 196.597 32.0745 196.574 32.1605 198.474C30.4183 199.061 28.734 199.169 26.832 199.619C23.9849 200.297 21.0923 201.919 20.0104 198.246ZM74.7952 138.601C80.7386 128.788 86.9384 119.245 92.9134 109.466C97.4271 114.582 100.536 120.799 104.426 126.444C108.262 132.01 112.83 137.238 115.51 143.876C117.135 145.263 119.557 145.795 121.691 146.63C122.305 162.119 121.798 178.461 121.905 192.74C115.946 193.389 108.627 197.458 103.785 195.034C94.8138 195.33 84.852 193.908 74.3703 194.116C74.8777 175.374 73.6325 157.77 74.7952 138.601ZM61.7915 136.997C71.3827 122.005 80.1801 106.164 90.9972 92.4911C93.4579 96.8899 97.0495 100.914 99.9475 105.567C101.349 107.812 102.354 110.428 103.785 112.677C105.822 115.88 108.278 118.862 110.182 122.083C112.2 125.505 114.075 129.046 116.15 131.948C117.321 133.589 121.9 138.282 118.069 139.748C109.583 126.399 101.439 113.495 92.8579 100.249C92.5491 98.7115 90.8355 98.6175 89.2884 99.1446C84.9994 106.453 80.1748 113.193 75.8596 120.477C75.41 120.681 75.2308 121.177 74.5827 121.167C72.0677 127.79 67.9069 132.642 64.5629 138.37C63.1737 138.416 62.7574 137.406 61.7915 136.997ZM157.932 94.325C165.225 94.7613 171.997 95.9996 179.464 96.3908C180.277 96.8122 180.634 97.727 181.807 97.7685C191.024 109.719 199.21 122.777 208.026 135.159V135.619C196.267 136.282 184.62 137.38 172.855 136.765C161.494 136.174 150 137.263 138.532 136.997C133.662 136.881 128.223 135.802 122.971 136.306C117.105 129.491 112.661 121.417 107.623 113.598C105.977 111.036 104.812 108.071 103.146 105.567C101.751 103.47 99.6068 101.946 99.3099 99.1446C97.9629 97.3831 96.7826 95.44 95.8991 93.1791C117.642 93.631 137.289 93.0944 157.932 94.325ZM208.878 139.977C209.224 139.913 209.247 140.194 209.517 140.206C209.477 140.391 209.305 140.434 209.305 140.666C187.264 141.988 157.596 138.892 131.711 140.436C128.175 140.645 124.109 142.019 121.691 140.206C123.194 137.662 128.14 138.37 132.136 138.37C137.905 138.37 144.252 138.638 149.403 138.829C168.357 139.534 190.72 138.23 208.878 139.977ZM219.537 126.673C220.449 125.957 219.77 125.849 219.749 124.607C217.809 124.609 217.01 124.537 215.485 124.377C215.341 122.681 213.723 121.283 213.994 119.102C214.309 116.554 216.872 114.652 219.537 115.661C219.983 115.452 220.186 114.983 220.177 114.283C217.423 112.633 217.885 107.199 221.242 106.714C223.524 106.75 223.229 110.041 224.866 110.156C226.515 110.271 227.181 106.395 230.194 106.943C230.748 106.466 230.405 105.03 231.687 105.338C232.641 100.978 226.016 100.592 223.374 102.127C223.034 100.152 224.243 99.8452 225.078 99.1446C225.656 99.2863 225.612 100.101 226.358 100.061C227.27 99.7434 227.836 99.05 228.062 97.9974C227.052 96.5023 226.576 92.7103 227.425 90.6564C230.277 88.8756 231.45 91.8768 232.966 92.9511C233.58 92.6919 233.743 91.9492 234.883 92.2629C235.43 89.5579 235.944 86.8254 238.935 86.7566C240.077 88.1293 241.131 89.5963 242.557 90.6564C242.188 91.5823 241.239 92.308 242.131 93.408C241.679 93.6045 240.494 93.1873 240.428 94.325C239.695 93.9677 240.031 92.4571 238.935 92.4911C236.978 93.459 238.723 96.9253 238.935 98.4543C238.221 97.7722 236.832 97.8134 236.163 97.079C235.349 97.0427 235.47 98.0158 235.098 98.4543C236.109 101.19 237.279 103.756 239.147 105.567C237.519 105.839 236.641 101.221 234.246 103.044C234.314 106.487 236.877 107.245 238.298 109.237C237.29 110.526 237.026 108.13 235.951 108.092C234.914 107.738 235.149 108.757 234.459 108.778C233.876 108.183 233.328 107.552 232.113 107.631C231.321 112.191 236.163 114.563 237.443 118.415C234.926 117.442 233.555 114.303 231.05 114.055C231.083 118.918 235.156 121.409 237.655 124.377C234.311 123.774 232.102 119.954 228.915 118.415C228.081 121.887 231.838 124.252 232.754 127.361C230.516 125.945 228.521 124.265 227.21 121.855C225.382 123.435 227.35 125.588 227.85 127.59C228.516 130.26 230.623 132.398 231.475 134.243C228.964 133.505 227.098 132.069 225.293 130.57C224.762 130.536 224.633 130.933 224.226 131.031C225.05 134.469 228.647 136.798 229.555 140.895C228.624 140.369 227.504 139.849 226.786 139.058C225.145 137.255 224.216 134.59 221.882 133.552C221.65 133.612 221.736 134.012 221.454 134.012C222.338 137.727 224.487 140.079 225.931 143.188C223.668 142.49 223.026 140.045 221.03 139.058C218.985 140.704 222.477 143.158 222.733 145.254C220.949 144.727 220.535 142.728 218.47 142.501C217.731 143.916 219.557 144.539 219.537 145.942C217.556 147.82 216.931 153.103 218.47 155.578C222.059 155.189 221.564 147.283 225.078 147.319C226.458 147.329 226.561 148.618 227.637 149.381C228.206 149.226 228.353 147.924 229.13 148.694C230.717 145.56 232.333 142.604 236.591 144.566C237.262 150.113 241.418 151.908 241.919 157.639C239.064 156.049 236.881 153.734 235.309 150.76C234.8 150.62 234.339 150.43 233.605 150.531C233.615 152.816 235.203 153.398 235.527 155.349C237.784 158.655 240.321 161.654 243.838 163.606C237.533 164.044 235.086 158.345 231.05 155.578V154.429C230.225 154.17 229.795 153.487 228.703 153.512C228.124 153.347 228.855 154.594 228.278 154.429C230.273 160.847 235.693 163.578 239.79 167.731C234.239 167.887 230.319 164.315 226.998 161.311C226.232 161.252 225.97 161.733 225.293 161.77C225.31 162.096 225.328 162.421 225.078 162.457C227.181 166.774 231.852 168.322 235.309 171.177C234.624 171.505 233.522 171.392 232.541 171.406C231.351 169.471 227.771 170.116 226.358 168.424C225.421 168.408 225.022 168.972 224.653 169.571C225.586 172.162 227.918 175.331 226.573 178.287C223.431 178.405 224.778 175.071 222.946 173.928C220.905 174.254 221.352 177.258 219.537 177.829C217.76 175.687 222.197 173.174 220.603 170.485C219.945 170.542 219.397 170.718 218.896 170.947C219.494 173.407 216.323 175.281 214.848 174.159C215.398 171.864 214.732 169.337 217.617 169.341C217.786 168.847 218.137 168.057 217.832 167.731C216.14 166.397 213.804 166.538 212.077 166.129C211.239 163.578 213.203 161.414 214.421 159.705C213.929 156.946 211.741 156.016 209.944 154.657C209.356 152.774 209.252 151.202 210.157 149.61C211.191 150.485 211.898 151.716 213.142 152.363C213.94 152.38 214.364 151.996 214.635 151.445C213.702 148.644 213.647 146.14 215.061 143.876C215.883 144.001 216.1 143.467 216.978 143.647C217.143 142.782 216.72 142.551 216.765 141.811C215.893 141.91 215.4 141.601 214.848 141.353C214.807 140.348 214.754 138.935 213.781 138.37C214.285 136.511 216.449 135.846 218.045 135.849C218.48 135.477 218.035 134.156 218.47 133.783C216.563 133.312 213.314 132.836 212.501 134.702C211.559 130.315 214.765 125.724 219.537 126.673ZM242.131 102.586C240.825 103.423 239.457 100.445 238.935 98.9137C240.476 99.6282 241.008 101.426 242.131 102.586ZM205.468 150.072C204.956 148.655 205.432 146.791 205.468 145.254H208.026C207.801 145.904 207.801 146.211 208.026 146.859C206.504 146.337 206.718 149.549 205.468 150.072ZM193.315 153.742C191.406 149.055 184.706 153.221 180.74 151.906C179.715 151.874 179.916 153.16 179.249 153.512C172.063 153.749 164.447 154.576 158.144 153.971C157.592 156.155 160.149 155.406 161.554 155.349C164 155.246 167.111 154.881 169.656 155.119C170.599 155.203 171.43 155.934 172.212 156.036C175.306 156.43 177.599 155.35 179.674 156.036C180.071 157.577 179.813 161.242 179.888 163.835C174.424 164.315 166.6 164.764 159.21 164.523C159.372 165.416 158.422 165.713 158.995 166.359C166.776 166.928 172.592 166.28 179.888 167.046V177.141C179.038 177.91 177.989 178.461 177.116 179.207C177.148 180.509 179.163 179.702 179.888 179.665V185.398C178.515 185.753 176.231 185.133 175.839 186.544C176.109 188.088 177.921 187.973 179.674 187.922C179.823 189.015 179.656 189.692 179.464 190.904C161.205 189.882 144.388 190.47 126.169 192.051C126.315 191.129 125.966 190.742 125.955 189.986C127.546 190.181 129.194 189.158 130.859 188.839C132.352 188.553 134.802 189.209 135.123 187.235C132.733 186.425 129.21 188.155 125.955 187.922C125.801 186.305 125.505 183.957 125.743 182.646C127.963 181.039 131.293 181.757 133.416 180.35C147.453 181.045 158.566 179.598 169.871 179.665C171.32 179.672 173.326 180.346 174.345 178.977C173.38 177.19 169.65 177.352 166.243 177.599C156.378 178.311 144.756 177.994 134.694 178.977C134.046 178.983 133.867 178.491 133.416 178.287C130.46 178.664 128.929 178.896 125.743 178.515C125.632 174.786 126.15 172.641 125.955 169.571C128.63 168.089 132.784 168.199 135.761 167.046C134.219 164.684 128.763 166.34 126.169 165.899C125.776 162.619 125.983 159.219 125.743 156.263C129.13 155.628 133.04 155.554 136.4 154.888C133.906 153.208 129.557 153.948 125.955 153.054C125.855 150.954 126.057 149.188 126.169 147.319C133.035 146.534 140.589 146.606 148.125 146.171C154.49 145.806 160.697 146.83 166.455 146.63C176.273 146.29 190.818 146.175 200.99 148.006V153.054C199.607 152.96 198.591 153.795 197.154 153.282C197.161 154.743 197.104 154.64 196.301 155.807C197.345 157.427 199.58 155.714 200.99 156.036V166.817C199.275 167.72 196.262 167.235 195.661 169.341C196.525 170.036 199.239 169.176 200.777 169.11C201.377 172.709 200.899 175.503 201.205 178.058C199.315 178.184 196.482 178.207 195.449 179.894C197.211 180.343 198.945 180.099 201.205 180.812C201.816 182.601 201.02 185.903 201.632 187.693C200.952 188.339 198.91 187.519 198.219 188.15C197.691 188.626 197.613 189.842 197.792 190.448C198.583 191.456 200.379 190.58 201.632 190.675C201.391 191.782 201.646 192.323 201.205 193.425C198.547 193.152 195.984 192.776 193.529 192.282C193.236 180.326 193.314 167.207 193.315 153.742ZM189.267 155.578C190.602 165.641 189.968 178.101 190.119 189.986C190.262 191.133 192.483 190.044 191.825 192.051C188.561 191.409 183.914 191.377 180.952 191.133C181.979 188.812 181.431 185.61 181.593 181.727C181.895 174.529 182.205 165.748 182.233 159.017C182.237 158.035 181.428 157.004 181.807 156.036C184.583 156.579 186.637 155.433 189.267 155.578ZM215.697 180.812C217.075 183.573 219.86 181.764 222.095 180.812C222.993 182.922 225.631 185.271 228.491 184.71C229.667 184.481 229.987 183.61 231.05 183.104C230.255 189.033 231.659 194.737 231.05 200.996C223.341 197.745 214.388 195.834 205.468 193.887C204.903 182.543 205.494 168.12 205.253 156.263C207.009 157.663 208.964 158.849 210.584 160.396C209.709 162.152 207.884 161.493 207.6 163.606C207.267 166.065 209.402 168.016 211.438 168.882C210.248 172.728 211.907 176.854 215.273 178.746C215.503 179.339 215.79 179.87 215.697 180.812ZM236.803 202.832C236.222 203.974 234.872 202.227 233.818 202.373C234.027 196.564 234.023 189.22 235.098 182.875C236.584 188.542 235.607 196.856 236.803 202.832ZM158.57 91.5727C158.81 89.1119 158.438 84.1225 159.422 81.7106C160.077 81.8769 160.05 81.3137 160.701 81.4818C161.331 84.3987 160.604 88.4487 160.915 91.3445C160.457 91.7698 159.353 91.4988 158.57 91.5727ZM158.782 78.4976C157.688 78.3538 155.97 77.8833 155.586 76.8929C159.181 75.7437 166.131 74.7477 169.656 76.8929C169.542 77.0762 169.435 77.2633 169.442 77.5809C166.149 77.7056 162.11 78.9304 158.782 78.4976ZM58.1682 200.769C70.3938 200.218 82.8057 199.774 94.1937 201.225C92.6884 201.84 90.7895 202.316 90.8432 203.627C103.026 204.512 119.883 199.722 133.203 198.246C137.21 197.824 141.396 197.901 145.567 197.557C148.125 197.344 150.598 196.585 153.028 196.41C158.999 195.98 165.122 196.431 170.72 196.639C178.843 196.939 186.973 197.793 195.022 198.934C207.31 200.675 220.059 202.559 230.835 205.816C234.262 207.042 239.559 208.858 240.642 204.896C238.969 197.725 239.206 189.041 240.214 181.727C242.07 182.599 243.589 184.309 246.182 183.79C247.574 183.516 248.375 182.133 249.593 181.727C249.623 180.766 249.981 180.159 250.448 179.665C250.997 179.683 250.671 180.644 251.512 180.35C252.996 179.391 254.226 178.595 256.628 179.207C257.444 178.096 258.951 177.725 260.464 177.37C260.766 175.932 261.226 174.669 261.105 172.782C266.877 172.605 269.349 161.808 264.945 158.789C265.233 156.16 266.382 153.72 265.58 151.216C264.676 150.431 263.064 150.41 261.955 149.841C264.398 148.346 265.195 142.672 262.811 140.436C264.007 137.796 262.818 134.717 260.893 134.012C263.508 126.397 262.033 119.115 255.563 117.725C259.215 115.849 261.031 106.632 254.711 106.483C254.679 104.988 253.779 104.429 253.432 103.274C255.624 102.367 257.849 97.5601 255.775 95.0146C254.829 93.8503 253.379 94.4719 252.152 93.408C252.626 92.7695 252.842 91.8582 252.791 90.6564C251.82 89.4072 250.581 88.4444 248.742 88.1315C247.748 88.7458 247.832 89.2658 246.261 89.2585C246.279 88.436 245.662 88.1823 245.758 87.4448C243.019 85.7082 241.066 81.7182 237.015 82.6273C234.4 83.2128 233.443 86.5676 231.262 88.1315C226.548 84.4776 220.977 89.1834 222.733 95.0146C221.237 95.0862 220.535 96.0105 219.322 96.3908C218.255 98.6639 219.547 100.789 220.177 102.586C215.259 102.014 212.482 106.463 213.781 111.302C208.601 111.01 206.819 119.528 210.157 123.46C208.317 124.004 207.549 125.701 206.321 126.902C203.073 121.519 198.979 116.433 195.235 110.844C191.426 105.151 186.393 99.2007 183.086 93.6383C178.918 92.3102 172.763 93.1246 168.375 92.0318C168.124 88.6018 168.564 84.2244 168.375 81.2495C171.938 81.72 172.562 79.0267 172.855 75.9725C170.996 73.7875 165.907 74.1466 161.342 74.3677C157.983 74.534 155.243 74.3602 153.242 75.0558C151.95 77.9286 151.964 83.6124 155.798 83.0866C155.216 84.8409 156.269 89.6885 154.948 91.3445C132.826 89.645 110.652 90.1064 89.5044 89.5092C87.7255 90.3211 83.4646 98.49 80.7632 102.356C78.3939 105.756 76.1405 109.395 73.7274 112.908C71.4441 116.24 68.9414 119.652 66.6933 123.231C63.9359 127.625 61.6335 132.872 57.9539 135.619C58.8408 138.094 62.3202 140.336 64.1379 142.273C64.9704 143.158 65.7694 143.19 66.6933 143.876C68.0615 144.894 69.031 146.651 70.7451 147.088C71.7199 151.925 70.9014 158.696 71.1701 164.294C67.3573 161.822 61.3577 164.255 59.2342 167.046C58.5773 167.906 58.8057 169.185 57.7414 169.571C56.5769 169.051 56.4435 167.491 55.6092 166.588C50.1786 160.68 39.8778 164.68 36.85 170.029C35.9823 169.968 35.4045 169.597 34.7195 169.341C29.5314 170.335 26.709 173.874 25.3373 178.977C25.0352 179.774 24.1289 179.513 23.4194 179.894C20.7515 181.329 17.2846 186.971 16.8121 189.757C15.948 194.836 18.6931 197.818 20.0104 201.687C24.4413 203.487 25.1058 204.025 33.2248 202.373C41.2425 201.278 49.4832 201.16 58.1682 200.769Z" fill="#212121"/>
<path fill-rule="evenodd" clip-rule="evenodd" d="M150.043 151.445C149.09 152.375 149.011 150.632 147.7 151.445C146.848 152.999 147.428 157.244 147.271 158.789C147.891 159.735 149.5 158.494 150.043 158.789C150.269 160.412 150.191 160.947 150.255 162.688C149.037 162.675 148.042 162.907 147.271 163.377C147.532 164.841 147.647 167.995 146.845 169.571C144.517 168.231 147.802 161.791 143.223 162.457C141.765 163.908 143.216 167.068 142.796 169.571C142.37 169.571 141.943 169.571 141.517 169.571C140.482 164.43 140.675 157.231 140.877 150.76C142.621 150.813 145.217 150.391 147.488 150.531C148.431 150.588 150.152 150.009 150.043 151.445ZM138.959 148.694C138.393 155.213 139.595 163.95 138.959 171.864C143.308 173.593 149.025 172.419 153.028 172.092C153.253 164.802 152.643 158.094 153.242 150.302C150.702 146.355 143.108 148.859 138.959 148.694Z" fill="#212121"/>
<path d="M222.885 122.788C223.09 122.662 223.086 122.393 222.953 122.212C222.6 121.736 222.332 121.25 221.904 120.825C221.467 120.388 221.266 119.742 221.124 119.135C220.894 118.168 219.372 118.347 219.475 119.375C219.656 121.161 220.772 124.085 222.885 122.788Z" fill="#212121"/>
<path d="M225.339 118.215C226.199 117.996 226.325 116.69 225.98 115.964C225.744 115.468 225.587 114.978 225.398 114.469C225.214 113.978 225.176 113.42 224.781 113.059C224.47 112.77 223.982 112.615 223.613 112.896C222.725 113.563 222.801 114.89 223.057 115.903C223.338 117.022 224.008 118.553 225.339 118.215Z" fill="#212121"/>
<path d="M231.674 115.328C231.773 114.693 231.409 114.134 231.014 113.703C230.723 113.385 230.549 112.916 230.394 112.512C230.304 112.268 230.308 111.99 230.186 111.764C230.082 111.576 229.929 111.463 229.849 111.261C229.804 111.151 229.65 111.119 229.56 111.18C229.229 111.408 228.874 111.514 228.736 111.967C228.592 112.44 228.43 113.136 228.596 113.625C228.991 114.808 229.688 115.842 230.916 115.952C231.255 115.98 231.62 115.683 231.674 115.328Z" fill="#212121"/>
<path d="M230.272 98.5657C230.802 98.8829 231.45 98.6962 231.766 98.1439C232.099 97.5681 231.948 97.0159 231.852 96.4001C231.832 96.2732 231.824 96.0614 231.805 95.9025C231.763 95.523 231.626 95.224 231.479 94.8836C231.185 94.1977 230.062 94.1794 229.777 94.8836C229.681 95.1089 229.593 95.3392 229.502 95.5681C229.395 95.8441 229.453 96.2842 229.463 96.5795C229.495 97.3488 229.586 98.1521 230.272 98.5657Z" fill="#212121"/>
<path d="M237.492 97.7019C237.255 97.0258 237.018 96.3398 236.833 95.6423C236.617 94.8257 236.648 94.077 236.215 93.3307C235.908 92.8013 235.192 92.658 234.773 93.1305C233.809 94.2173 233.915 95.801 234.113 97.1956C234.291 98.447 234.998 100.482 236.446 100.482C237.793 100.482 237.846 98.7062 237.492 97.7019Z" fill="#212121"/>
<path d="M224.78 125.066C224.219 124.476 223.268 124.596 222.867 125.332C222.549 125.916 222.546 126.606 222.76 127.232C222.996 127.924 223.322 128.759 223.982 129.079C224.896 129.519 226.016 129.012 226.023 127.818C226.027 127.161 225.742 126.743 225.454 126.207C225.235 125.805 225.101 125.403 224.78 125.066Z" fill="#212121"/>
<path d="M219.428 132.305C219.983 132.538 220.772 132.053 220.876 131.419C220.951 130.939 220.94 130.538 220.834 130.079C220.833 130.062 220.833 130.039 220.833 130.005C220.815 129.836 220.793 129.667 220.768 129.498C220.739 129.402 220.693 129.312 220.653 129.221C220.66 129.222 220.653 129.198 220.632 129.132C220.431 128.361 219.677 128.13 219.055 128.44C218.378 128.776 218.022 129.451 218.045 130.245C218.054 130.574 218.124 131.128 218.317 131.409C218.641 131.886 218.923 132.096 219.428 132.305Z" fill="#212121"/>
<path d="M218.611 160.767C218 159.44 218.045 158.028 216.874 157.093C216.652 156.916 216.309 156.961 216.08 157.093C214.391 158.094 214.962 160.586 215.55 162.155C216.356 164.301 217.467 165.935 219.619 166.411C220.21 166.543 220.795 166.01 220.619 165.334C220.167 163.628 219.339 162.355 218.611 160.767Z" fill="#212121"/>
<path d="M223.472 157.977C223.255 157.545 223.164 157.018 222.835 156.664C222.439 156.238 221.599 155.965 221.105 156.374C220.587 156.806 220.278 157.259 220.345 157.997C220.39 158.511 220.468 159.025 220.576 159.527C220.811 160.593 221.467 161.717 222.34 162.281C223.466 163.003 225.097 161.805 224.637 160.382C224.359 159.529 223.87 158.766 223.472 157.977Z" fill="#212121"/>
<path d="M226.555 152.232C226.254 151.724 225.719 151.322 225.135 151.355C224.989 151.365 225.038 151.351 224.727 151.413C224.716 151.416 224.706 151.417 224.696 151.419C223.982 151.601 223.495 152.363 223.488 153.126C223.481 154.111 224.068 154.734 224.864 155.058C225.537 155.329 226.35 154.886 226.689 154.258C226.991 153.704 226.953 153.083 226.69 152.556C226.65 152.445 226.616 152.333 226.555 152.232Z" fill="#212121"/>
<path d="M232.562 148.739C232.544 148.737 232.526 148.737 232.507 148.733C232.075 148.685 231.677 149.024 231.457 149.381C231.079 149.987 230.942 150.767 231.371 151.386C231.652 151.788 231.989 152.069 232.483 152.069C233.045 152.069 233.576 151.649 233.721 151.054C233.844 150.546 233.771 150.047 233.68 149.693C233.533 149.12 233.088 148.8 232.562 148.739Z" fill="#212121"/>
<path d="M141.5 0C63.2931 0 0 63.2864 0 141.5C0 219.706 63.2864 283 141.5 283C219.706 283 283 219.713 283 141.5C283 63.2931 219.713 0 141.5 0ZM141.5 275.953C73.8802 275.953 7.04789 230.954 7.04789 141.5C7.04789 73.8797 73.8802 7.59003 141.5 7.59003C232.58 7.59003 273.783 73.8802 273.783 141.5C273.783 209.12 209.12 275.953 141.5 275.953Z" fill="#212121"/>
<path fill-rule="evenodd" clip-rule="evenodd" d="M116.015 231.912C115.397 232.618 114.726 233.243 114.006 233.808C114.711 233.499 115.443 233.232 116.212 233.008C118.985 232.202 122.213 231.967 125.948 232.181C133.173 230.802 141.288 229.94 146.168 230.019C141.94 230.531 136.1 231.519 130.659 232.645C130.019 233.431 129.379 234.223 128.752 235.012C128.124 235.779 127.432 236.46 126.702 237.061C126.745 237.065 126.801 237.072 126.859 237.072C128.121 236.15 129.585 235.438 131.238 234.919C133.934 234.062 137.078 233.789 140.734 233.923C140.964 233.932 141.193 233.94 141.422 233.949C141.924 233.967 142.424 233.985 142.928 234.006C148.464 232.436 154.156 231.237 157.965 230.846C154.363 231.747 149.543 233.138 144.95 234.672C144.743 234.937 144.533 235.202 144.323 235.468C143.999 235.877 143.675 236.287 143.356 236.699C143.183 236.908 143.008 237.115 142.821 237.314C143.395 236.946 144.011 236.617 144.663 236.329C147.073 235.248 149.978 234.657 153.433 234.454C154.088 234.418 154.75 234.381 155.411 234.331C160.87 232.3 166.781 230.631 170.671 230.011C167.084 231.122 162.221 232.906 157.753 234.739L157.579 235.06C157.24 235.686 156.901 236.312 156.56 236.931C156.316 237.394 156.04 237.825 155.737 238.244C157.048 236.968 158.627 236.011 160.483 235.315C162.606 234.522 165.013 234.088 167.769 233.945C172.527 231.687 177.671 229.723 181.17 228.855C178.179 230.086 174.225 231.942 170.53 233.879C170.807 233.871 171.082 233.866 171.354 233.86C171.638 233.855 171.919 233.849 172.2 233.841C172.727 233.549 173.281 233.281 173.865 233.034C176.191 232.075 178.914 231.586 182.081 231.422C182.461 231.401 182.839 231.378 183.218 231.356C183.596 231.333 183.974 231.311 184.352 231.29C189.528 229.847 195.147 228.711 198.59 228.412C195.258 229.152 190.58 230.416 186.321 231.733C185.909 232.315 185.497 232.898 185.085 233.479C185.355 233.386 185.623 233.295 185.903 233.21C188.309 232.472 190.95 232.185 193.919 232.249C194.355 232.259 194.79 232.267 195.223 232.275C195.745 232.285 196.265 232.295 196.781 232.308C202.682 230.386 210.612 227.615 214.563 225.871C211.986 227.59 205.856 230.017 200.277 232.227C199.336 232.6 198.41 232.966 197.519 233.322C197.375 233.467 197.23 233.612 197.083 233.758C196.696 234.146 196.304 234.538 195.922 234.926C193.032 237.859 189.356 239.415 185.823 239.812C185.346 239.867 184.863 239.897 184.393 239.909C184.76 240.043 185.125 240.177 185.49 240.311C185.886 240.456 186.282 240.601 186.679 240.746C192.636 239.292 199.679 236.999 204.058 235.209C200.254 237.473 192.365 240.567 185.242 242.369C185.101 242.43 184.96 242.493 184.818 242.556C184.528 242.685 184.234 242.815 183.94 242.939C181.22 244.135 178.576 244.814 175.872 244.95C174.372 245.021 172.884 244.928 171.382 244.627C172.862 245.661 174.536 246.131 176.38 245.966C180.894 245.555 185.679 244.867 188.995 244.205C184.648 245.729 175.711 247.313 168.825 247.456C165.867 248.032 163.154 248.167 160.566 247.765C159.077 247.545 157.662 247.149 156.335 246.586C156.389 246.635 156.442 246.684 156.497 246.734C156.703 246.922 156.915 247.115 157.111 247.313C158.452 248.649 159.784 249.304 161.717 249.333C165.343 249.387 168.858 249.061 171.869 248.782C172.765 248.699 173.616 248.62 174.413 248.556C167.647 250.683 153.055 252.034 145.713 249.467C143.313 248.761 141.248 247.65 139.454 246.064L139.439 246.06C140.691 247.209 141.75 248.624 142.457 250.295C143.077 251.766 144.906 251.941 146.438 252.088C146.511 252.095 146.583 252.102 146.654 252.109C151.938 252.618 157.51 252.867 161.471 252.794C154.006 253.956 146.267 253.526 139.072 252.55C135.337 252.018 132.986 251.425 130.109 249.764C129.355 249.322 128.656 248.825 128.032 248.285C128.229 248.728 128.413 249.18 128.573 249.655C129.121 251.301 130.872 251.935 132.521 252.379C136.537 253.458 140.479 254.371 143.562 254.914C139.459 254.75 133.09 253.661 126.905 252.053C126.253 251.914 125.616 251.784 124.967 251.652C121.687 250.982 118.945 250.029 116.735 248.735C115.782 248.355 114.886 247.964 114.071 247.583C114.073 247.589 114.074 247.598 114.074 247.607C114.074 247.61 114.074 247.614 114.074 247.617C114.888 250.461 116.193 251.006 118.573 252.001C118.819 252.104 119.076 252.211 119.345 252.326C123.357 254.045 127.395 255.591 130.539 256.642C127.786 256.126 124.09 255.12 120.222 253.769C116.339 252.411 112.231 250.732 108.63 248.964C105.563 248.076 103.027 246.955 101.008 245.515C99.8913 244.703 98.9405 243.82 98.1805 242.84C98.1958 243.001 98.2112 243.171 98.2144 243.327C98.3281 245.387 99.0944 246.521 100.87 247.704C102.51 248.794 104.199 249.872 105.846 250.881C108.353 252.408 110.824 253.807 112.886 254.891C110.27 253.968 106.882 252.437 103.421 250.578C99.9436 248.713 96.3373 246.536 93.2479 244.358C89.9645 243.101 87.3859 241.689 85.5213 239.983C83.9827 238.576 82.5671 236.485 81.0994 234.306C79.6347 232.129 78.1022 229.854 76.2991 228.059C80.601 228.96 83.0503 228.943 84.6564 228.112C86.5735 227.106 88.3798 226.216 90.6076 225.755C93.6725 225.12 97.1189 225.089 101.073 225.583L101.274 225.608C101.656 225.657 102.038 225.706 102.418 225.748C110.572 224.76 120.099 224.472 125.551 224.985C120.034 225.21 111.828 225.935 105.012 226.886L104.821 227.075C104.345 227.547 103.867 228.021 103.405 228.489C102.771 229.102 102.122 229.645 101.436 230.13C101.971 229.94 102.535 229.772 103.116 229.631C106.098 228.849 109.532 228.711 113.498 229.054L113.59 229.062C113.857 229.086 114.129 229.11 114.394 229.13C121.927 228.022 130.389 227.483 135.417 227.764C130.623 228.149 123.77 229.003 117.668 230.033C117.115 230.657 116.574 231.274 116.027 231.898L116.015 231.912ZM98.2901 234.79C103.351 236.115 109.412 235.202 113.353 230.743C106.443 230.1 101.648 231.154 98.2901 234.79ZM182.016 237.771C185.536 238.471 190.048 237.498 193.461 234.013C188.539 233.894 184.91 234.887 182.016 237.771ZM169.246 241.836C172.129 239.966 177.019 239.317 182.438 241.389C177.883 243.326 173.819 243.655 169.246 241.836ZM170.864 238.015C174.802 238.471 179.357 237.068 182.092 233.175C176.786 233.429 173.193 234.783 170.864 238.015ZM155.13 243.341C158.853 241.964 164.071 242.294 168.621 245.508C163.216 246.621 158.985 246.109 155.13 243.341ZM157.119 240.424C161.279 241.051 166.133 239.72 169.116 235.665C163.495 235.763 159.645 237.05 157.119 240.424ZM141.099 244.236C145.323 243.311 150.672 244.307 154.59 248.285C148.696 248.724 144.415 247.626 141.099 244.236ZM141.995 241.762C146.487 242.249 151.366 240.618 153.745 236.216C147.837 236.564 144.034 238.101 141.995 241.762ZM127.829 243.689C132.607 243.7 137.55 245.877 139.576 250.687C133.4 249.759 129.568 247.747 127.829 243.689ZM127.195 240.148C131.808 241.126 137.246 239.994 140.674 235.681C134.399 235.405 130.09 236.602 127.195 240.148ZM121.055 244.067C118.974 242.754 116.471 242.025 113.963 241.866C114.676 243.999 115.997 245.659 117.928 246.949C119.858 248.249 122.429 249.18 125.639 249.834C124.801 247.28 123.118 245.376 121.055 244.067ZM111.882 238.267C116.743 239.385 122.47 238.336 126.066 233.916C119.472 233.497 114.933 234.633 111.882 238.267ZM92.0617 236.713C90.2548 235.134 87.8201 234.088 85.2202 233.594C85.3441 235.757 86.2608 237.537 87.9202 239.057C89.5858 240.589 92.0264 241.871 95.2187 243.026C95.0801 240.413 93.8686 238.296 92.0617 236.713ZM85.3499 230.602C90.3314 232.068 96.495 231.418 100.793 227.205C93.9069 226.333 88.9902 227.18 85.3499 230.602ZM106.588 241.5C104.477 240.071 101.869 239.233 99.2246 238.966C99.8642 241.187 101.176 242.944 103.151 244.357C105.117 245.765 107.773 246.816 111.112 247.654C110.358 244.98 108.698 242.933 106.588 241.5Z" fill="#212121"/>
</svg>
